<?xml version="1.0" encoding="UTF-8" standalone="no"?>
<!DOCTYPE svg PUBLIC "-//W3C//DTD SVG 1.1//EN" "http://www.w3.org/Graphics/SVG/1.1/DTD/svg11.dtd">
<svg width="100%" height="100%" viewBox="0 0 1800 1800" version="1.1" xmlns="http://www.w3.org/2000/svg" xmlns:xlink="http://www.w3.org/1999/xlink" xml:space="preserve" xmlns:serif="http://www.serif.com/" style="fill-rule:evenodd;clip-rule:evenodd;stroke-linejoin:round;stroke-miterlimit:2;">
    <g transform="matrix(15,0,0,15,-606,-195)">
        <g id="SvgjsG1665" transform="matrix(2.25,0,0,2.25,45.8558,-12.2852)">
            <path d="M43.184,40.898L46.465,40.898C43.272,50.332 35.127,57.744 25.225,59.472C17.93,60.497 9.698,59.999 2.286,59.999L6.681,40.897L3.429,40.897L9.083,16.288C14.943,16.288 29.767,15.38 35.626,17.87C43.741,21.357 45.763,30.233 43.888,38.143C43.741,39.081 43.507,40.018 43.185,40.897L43.184,40.898ZM21.387,27.1L18.223,40.899L21.475,40.899L19.571,49.102C25.928,49.102 29.473,46.7 31.436,40.899L28.184,40.899C28.506,40.108 28.74,39.171 29.004,38.057C30.82,30.469 28.594,27.1 21.387,27.1L21.387,27.1Z" style="fill-rule:nonzero;"/>
        </g>
        <g id="SvgjsG1666">
        </g>
    </g>
</svg>
